# xmcd
#
# Track frame offsets:
#	150
#	18499
#	31895
#	50006
#	65010
#	88305
#	106985
#	127573
#	144746
#	160537
#	180946
#	201254
#	218518
#	235218
#
# Disc length: 3374 seconds
#
# Revision: 0
# Processed by: cddbd v1.4PL0 Copyright (c) Steve Scherf et al.
# Submitted via: dBpowerAMP V4.0
#
DISCID=b80d2c0e
DTITLE=Tim Mcgraw - Set This Circus Down
DYEAR=1900
DGENRE=Country
TTITLE0=The Cowboy in Me
TTITLE1=Smilin'
TTITLE2=Unbroken
TTITLE3=Things Change
TTITLE4=Angel Boy
TTITLE5=Forget About Us
TTITLE6=Take Me Away From Here
TTITLE7=Telluride
TTITLE8=Set This Circus Down
TTITLE9=Angry All The Time
TTITLE10=Let Me Love You
TTITLE11=Grown Men Don't Cry
TTITLE12=Why We Said Goodby
TTITLE13=You Get Used To Somebody
EXTD=
EXTT0=
EXTT1=
EXTT2=
EXTT3=
EXTT4=
EXTT5=
EXTT6=
EXTT7=
EXTT8=
EXTT9=
EXTT10=
EXTT11=
EXTT12=
EXTT13=
PLAYORDER=
